<svg xmlns="http://www.w3.org/2000/svg" width="664" height="532" viewBox="0 0 664 532" fill="none"><path d="M298.799 66.4H431.599C475.625 66.4 517.847 83.8892 548.979 115.02C580.11 146.151 597.599 188.374 597.599 232.4V298.8C597.599 320.599 593.305 342.185 584.963 362.325C576.621 382.465 564.393 400.765 548.979 416.18C533.564 431.594 515.264 443.822 495.124 452.164C474.984 460.506 453.398 464.8 431.599 464.8H298.799V66.4Z" fill="#34D399"></path><path d="M66.3994 66.4H199.199C243.225 66.4 285.448 83.8892 316.579 115.02C347.71 146.151 365.199 188.374 365.199 232.4V298.8C365.199 320.599 360.906 342.185 352.563 362.325C344.221 382.465 331.994 400.765 316.579 416.18C301.165 431.594 282.865 443.822 262.725 452.164C242.585 460.506 220.999 464.8 199.199 464.8H66.3994V66.4Z" fill="#059669"></path></svg>